<mxfile host="app.diagrams.net" modified="2024-06-20T18:28:54.780Z" agent="Mozilla/5.0 (Windows NT 10.0; Win64; x64) AppleWebKit/537.36 (KHTML, like Gecko) Chrome/126.0.0.0 Safari/537.36" etag="IEElsEE-NknD8CQCR_sq" version="24.4.8" type="device">
  <diagram name="Page-1" id="XYAyqekg4VFPRFrHt1VU">
    <mxGraphModel dx="913" dy="524" grid="1" gridSize="10" guides="1" tooltips="1" connect="1" arrows="1" fold="1" page="1" pageScale="1" pageWidth="827" pageHeight="1169" math="0" shadow="0">
      <root>
        <mxCell id="0" />
        <mxCell id="1" parent="0" />
        <mxCell id="iWWCnVS-8DMxYTXh9jWT-9" value="" style="edgeStyle=orthogonalEdgeStyle;rounded=0;orthogonalLoop=1;jettySize=auto;html=1;" edge="1" parent="1" source="iWWCnVS-8DMxYTXh9jWT-1" target="iWWCnVS-8DMxYTXh9jWT-8">
          <mxGeometry relative="1" as="geometry" />
        </mxCell>
        <mxCell id="iWWCnVS-8DMxYTXh9jWT-22" value="" style="edgeStyle=orthogonalEdgeStyle;rounded=0;orthogonalLoop=1;jettySize=auto;html=1;" edge="1" parent="1" source="iWWCnVS-8DMxYTXh9jWT-1" target="iWWCnVS-8DMxYTXh9jWT-21">
          <mxGeometry relative="1" as="geometry" />
        </mxCell>
        <mxCell id="iWWCnVS-8DMxYTXh9jWT-1" value="LOGIN" style="rhombus;whiteSpace=wrap;html=1;" vertex="1" parent="1">
          <mxGeometry x="400" y="130" width="80" height="80" as="geometry" />
        </mxCell>
        <mxCell id="iWWCnVS-8DMxYTXh9jWT-5" style="edgeStyle=orthogonalEdgeStyle;rounded=0;orthogonalLoop=1;jettySize=auto;html=1;entryX=0;entryY=0.5;entryDx=0;entryDy=0;" edge="1" parent="1" source="iWWCnVS-8DMxYTXh9jWT-2" target="iWWCnVS-8DMxYTXh9jWT-1">
          <mxGeometry relative="1" as="geometry" />
        </mxCell>
        <mxCell id="iWWCnVS-8DMxYTXh9jWT-2" value="HOME&lt;div&gt;NEWS&amp;nbsp;&lt;/div&gt;&lt;div&gt;MARKET TREND&amp;nbsp;&lt;/div&gt;" style="rounded=0;whiteSpace=wrap;html=1;" vertex="1" parent="1">
          <mxGeometry x="190" y="280" width="120" height="90" as="geometry" />
        </mxCell>
        <mxCell id="iWWCnVS-8DMxYTXh9jWT-23" value="" style="edgeStyle=orthogonalEdgeStyle;rounded=0;orthogonalLoop=1;jettySize=auto;html=1;" edge="1" parent="1" source="iWWCnVS-8DMxYTXh9jWT-3" target="iWWCnVS-8DMxYTXh9jWT-21">
          <mxGeometry relative="1" as="geometry" />
        </mxCell>
        <mxCell id="iWWCnVS-8DMxYTXh9jWT-3" value="&lt;div&gt;ADMIN&lt;/div&gt;LOGIN" style="rhombus;whiteSpace=wrap;html=1;" vertex="1" parent="1">
          <mxGeometry x="400" y="390" width="80" height="80" as="geometry" />
        </mxCell>
        <mxCell id="iWWCnVS-8DMxYTXh9jWT-6" value="" style="endArrow=classic;html=1;rounded=0;entryX=0;entryY=0.5;entryDx=0;entryDy=0;exitX=0.5;exitY=1;exitDx=0;exitDy=0;" edge="1" parent="1" source="iWWCnVS-8DMxYTXh9jWT-2" target="iWWCnVS-8DMxYTXh9jWT-3">
          <mxGeometry width="50" height="50" relative="1" as="geometry">
            <mxPoint x="360" y="320" as="sourcePoint" />
            <mxPoint x="200" y="430" as="targetPoint" />
            <Array as="points">
              <mxPoint x="250" y="430" />
              <mxPoint x="350" y="430" />
            </Array>
          </mxGeometry>
        </mxCell>
        <mxCell id="iWWCnVS-8DMxYTXh9jWT-7" value="VIEW PROTFOLIO" style="rounded=1;whiteSpace=wrap;html=1;" vertex="1" parent="1">
          <mxGeometry x="500" y="230" width="100" height="40" as="geometry" />
        </mxCell>
        <mxCell id="iWWCnVS-8DMxYTXh9jWT-10" value="" style="edgeStyle=orthogonalEdgeStyle;rounded=0;orthogonalLoop=1;jettySize=auto;html=1;" edge="1" parent="1" source="iWWCnVS-8DMxYTXh9jWT-8" target="iWWCnVS-8DMxYTXh9jWT-7">
          <mxGeometry relative="1" as="geometry" />
        </mxCell>
        <mxCell id="iWWCnVS-8DMxYTXh9jWT-14" value="" style="edgeStyle=orthogonalEdgeStyle;rounded=0;orthogonalLoop=1;jettySize=auto;html=1;" edge="1" parent="1" source="iWWCnVS-8DMxYTXh9jWT-8" target="iWWCnVS-8DMxYTXh9jWT-11">
          <mxGeometry relative="1" as="geometry" />
        </mxCell>
        <mxCell id="iWWCnVS-8DMxYTXh9jWT-8" value="SELECT&lt;div&gt;STOCK&lt;/div&gt;" style="shape=parallelogram;perimeter=parallelogramPerimeter;whiteSpace=wrap;html=1;fixedSize=1;" vertex="1" parent="1">
          <mxGeometry x="500" y="150" width="120" height="40" as="geometry" />
        </mxCell>
        <mxCell id="iWWCnVS-8DMxYTXh9jWT-19" value="" style="edgeStyle=orthogonalEdgeStyle;rounded=0;orthogonalLoop=1;jettySize=auto;html=1;" edge="1" parent="1" source="iWWCnVS-8DMxYTXh9jWT-11" target="iWWCnVS-8DMxYTXh9jWT-16">
          <mxGeometry relative="1" as="geometry" />
        </mxCell>
        <mxCell id="iWWCnVS-8DMxYTXh9jWT-20" value="" style="edgeStyle=orthogonalEdgeStyle;rounded=0;orthogonalLoop=1;jettySize=auto;html=1;" edge="1" parent="1" source="iWWCnVS-8DMxYTXh9jWT-11" target="iWWCnVS-8DMxYTXh9jWT-15">
          <mxGeometry relative="1" as="geometry" />
        </mxCell>
        <mxCell id="iWWCnVS-8DMxYTXh9jWT-11" value="STOCK ANALYSIS" style="rounded=0;whiteSpace=wrap;html=1;" vertex="1" parent="1">
          <mxGeometry x="650" y="150" width="120" height="40" as="geometry" />
        </mxCell>
        <mxCell id="iWWCnVS-8DMxYTXh9jWT-15" value="BUY/SELL" style="shape=parallelogram;perimeter=parallelogramPerimeter;whiteSpace=wrap;html=1;fixedSize=1;" vertex="1" parent="1">
          <mxGeometry x="650" y="230" width="120" height="40" as="geometry" />
        </mxCell>
        <mxCell id="iWWCnVS-8DMxYTXh9jWT-18" style="edgeStyle=orthogonalEdgeStyle;rounded=0;orthogonalLoop=1;jettySize=auto;html=1;entryX=0.5;entryY=0;entryDx=0;entryDy=0;" edge="1" parent="1" source="iWWCnVS-8DMxYTXh9jWT-16" target="iWWCnVS-8DMxYTXh9jWT-17">
          <mxGeometry relative="1" as="geometry">
            <mxPoint x="840" y="250" as="targetPoint" />
          </mxGeometry>
        </mxCell>
        <mxCell id="iWWCnVS-8DMxYTXh9jWT-16" value="PREDICT" style="rhombus;whiteSpace=wrap;html=1;" vertex="1" parent="1">
          <mxGeometry x="800" y="130" width="80" height="80" as="geometry" />
        </mxCell>
        <mxCell id="iWWCnVS-8DMxYTXh9jWT-17" value="STREAMLIT&lt;div&gt;PREDICTION&amp;nbsp;&lt;/div&gt;&lt;div&gt;APPLICATION&lt;/div&gt;" style="rounded=0;whiteSpace=wrap;html=1;" vertex="1" parent="1">
          <mxGeometry x="780" y="330" width="120" height="60" as="geometry" />
        </mxCell>
        <mxCell id="iWWCnVS-8DMxYTXh9jWT-21" value="DATABASE" style="rounded=1;whiteSpace=wrap;html=1;" vertex="1" parent="1">
          <mxGeometry x="400" y="270" width="80" height="60" as="geometry" />
        </mxCell>
        <mxCell id="iWWCnVS-8DMxYTXh9jWT-28" value="" style="endArrow=classic;html=1;rounded=0;entryX=1;entryY=0.5;entryDx=0;entryDy=0;exitX=0.5;exitY=1;exitDx=0;exitDy=0;" edge="1" parent="1" source="iWWCnVS-8DMxYTXh9jWT-7" target="iWWCnVS-8DMxYTXh9jWT-21">
          <mxGeometry width="50" height="50" relative="1" as="geometry">
            <mxPoint x="540" y="400" as="sourcePoint" />
            <mxPoint x="590" y="350" as="targetPoint" />
            <Array as="points">
              <mxPoint x="550" y="300" />
            </Array>
          </mxGeometry>
        </mxCell>
        <mxCell id="iWWCnVS-8DMxYTXh9jWT-30" value="" style="endArrow=none;html=1;rounded=0;entryX=0.5;entryY=1;entryDx=0;entryDy=0;" edge="1" parent="1" target="iWWCnVS-8DMxYTXh9jWT-15">
          <mxGeometry width="50" height="50" relative="1" as="geometry">
            <mxPoint x="550" y="300" as="sourcePoint" />
            <mxPoint x="590" y="360" as="targetPoint" />
            <Array as="points">
              <mxPoint x="710" y="300" />
            </Array>
          </mxGeometry>
        </mxCell>
      </root>
    </mxGraphModel>
  </diagram>
</mxfile>
